<svg width="50" height="50" viewBox="0 0 50 50" fill="none" xmlns="http://www.w3.org/2000/svg">
<path d="M30 15H32.5C33.163 15 33.7989 14.7366 34.2678 14.2678C34.7366 13.7989 35 13.163 35 12.5C35 11.837 34.7366 11.2011 34.2678 10.7322C33.7989 10.2634 33.163 10 32.5 10H30C29.337 10 28.7011 10.2634 28.2322 10.7322C27.7634 11.2011 27.5 11.837 27.5 12.5C27.5 13.163 27.7634 13.7989 28.2322 14.2678C28.7011 14.7366 29.337 15 30 15ZM30 25H32.5C33.163 25 33.7989 24.7366 34.2678 24.2678C34.7366 23.7989 35 23.163 35 22.5C35 21.837 34.7366 21.2011 34.2678 20.7322C33.7989 20.2634 33.163 20 32.5 20H30C29.337 20 28.7011 20.2634 28.2322 20.7322C27.7634 21.2011 27.5 21.837 27.5 22.5C27.5 23.163 27.7634 23.7989 28.2322 24.2678C28.7011 24.7366 29.337 25 30 25ZM17.5 15H20C20.663 15 21.2989 14.7366 21.7678 14.2678C22.2366 13.7989 22.5 13.163 22.5 12.5C22.5 11.837 22.2366 11.2011 21.7678 10.7322C21.2989 10.2634 20.663 10 20 10H17.5C16.837 10 16.2011 10.2634 15.7322 10.7322C15.2634 11.2011 15 11.837 15 12.5C15 13.163 15.2634 13.7989 15.7322 14.2678C16.2011 14.7366 16.837 15 17.5 15ZM17.5 25H20C20.663 25 21.2989 24.7366 21.7678 24.2678C22.2366 23.7989 22.5 23.163 22.5 22.5C22.5 21.837 22.2366 21.2011 21.7678 20.7322C21.2989 20.2634 20.663 20 20 20H17.5C16.837 20 16.2011 20.2634 15.7322 20.7322C15.2634 21.2011 15 21.837 15 22.5C15 23.163 15.2634 23.7989 15.7322 24.2678C16.2011 24.7366 16.837 25 17.5 25ZM47.5 45H45V2.5C45 1.83696 44.7366 1.20107 44.2678 0.732233C43.7989 0.263392 43.163 0 42.5 0H7.5C6.83696 0 6.20107 0.263392 5.73223 0.732233C5.26339 1.20107 5 1.83696 5 2.5V45H2.5C1.83696 45 1.20107 45.2634 0.732233 45.7322C0.263392 46.2011 0 46.837 0 47.5C0 48.163 0.263392 48.7989 0.732233 49.2678C1.20107 49.7366 1.83696 50 2.5 50H47.5C48.163 50 48.7989 49.7366 49.2678 49.2678C49.7366 48.7989 50 48.163 50 47.5C50 46.837 49.7366 46.2011 49.2678 45.7322C48.7989 45.2634 48.163 45 47.5 45ZM27.5 45H22.5V35H27.5V45ZM40 45H32.5V32.5C32.5 31.837 32.2366 31.2011 31.7678 30.7322C31.2989 30.2634 30.663 30 30 30H20C19.337 30 18.7011 30.2634 18.2322 30.7322C17.7634 31.2011 17.5 31.837 17.5 32.5V45H10V5H40V45Z" fill="#FD3301" fill-opacity="0.8"/>
</svg>
