<svg width="45" height="54" viewBox="0 0 45 54" fill="none" xmlns="http://www.w3.org/2000/svg">
<path d="M42.4999 16.2452L27.5 2.06015C26.125 0.73346 24.3449 0 22.5001 0C20.6553 0 18.8752 0.73346 17.5001 2.06015L2.50022 16.2452C1.70615 17.0113 1.07248 17.951 0.641412 19.0019C0.210345 20.0528 -0.00823134 21.1907 0.000236984 22.3399V45.9097C0.000236984 48.0554 0.790408 50.1132 2.19692 51.6304C3.60343 53.1476 5.51107 54 7.50018 54H37.5C39.4891 54 41.3967 53.1476 42.8032 51.6304C44.2098 50.1132 44.9999 48.0554 44.9999 45.9097V22.3129C45.0048 21.1683 44.7845 20.0356 44.3536 18.9896C43.9226 17.9437 43.2908 17.0082 42.4999 16.2452ZM27.5 48.6065H17.5001V35.1226C17.5001 34.4074 17.7635 33.7214 18.2323 33.2157C18.7012 32.7099 19.3371 32.4258 20.0001 32.4258H25.0001C25.6631 32.4258 26.299 32.7099 26.7678 33.2157C27.2367 33.7214 27.5 34.4074 27.5 35.1226V48.6065ZM40 45.9097C40 46.6249 39.7366 47.3108 39.2677 47.8166C38.7989 48.3223 38.163 48.6065 37.5 48.6065H32.5V35.1226C32.5 32.9769 31.7098 30.9191 30.3033 29.4019C28.8968 27.8846 26.9892 27.0323 25.0001 27.0323H20.0001C18.011 27.0323 16.1033 27.8846 14.6968 29.4019C13.2903 30.9191 12.5001 32.9769 12.5001 35.1226V48.6065H7.50018C6.83715 48.6065 6.20127 48.3223 5.73243 47.8166C5.26359 47.3108 5.0002 46.6249 5.0002 45.9097V22.3129C5.00065 21.93 5.07668 21.5516 5.22324 21.2029C5.3698 20.8541 5.58353 20.5431 5.8502 20.2903L20.8501 6.13228C21.3063 5.69993 21.8928 5.4615 22.5001 5.4615C23.1073 5.4615 23.6938 5.69993 24.1501 6.13228L39.15 20.2903C39.4166 20.5431 39.6304 20.8541 39.7769 21.2029C39.9235 21.5516 39.9995 21.93 40 22.3129V45.9097Z" fill="#70FF0C"/>
</svg>
