<svg width="45" height="60" viewBox="0 0 45 60" fill="none" xmlns="http://www.w3.org/2000/svg">
<path d="M22.716 0V0.00428571C21.4222 -0.0444986 20.1504 0.334029 19.116 1.07579H19.1115C18.2666 1.68725 17.6209 2.51428 17.2494 3.46099C16.8778 4.40771 16.7956 5.43534 17.0122 6.42475H12.375C12.2273 6.42698 12.0814 6.45691 11.9458 6.51283C11.8102 6.56875 11.6875 6.64957 11.5847 6.75066C11.4819 6.85176 11.4011 6.97115 11.3467 7.10202C11.2924 7.23289 11.2656 7.37268 11.268 7.51339L11.25 7.48768V8.56776H1.125V8.58061L0 8.56776V58.9285C0 59.2127 0.118527 59.4852 0.329505 59.6862C0.540484 59.8871 0.826631 60 1.125 60H43.875C44.1734 60 44.4595 59.8871 44.6705 59.6862C44.8815 59.4852 45 59.2127 45 58.9285V8.58276L43.875 8.57204V8.56776H33.75V7.48339L33.732 7.50482C33.7344 7.22211 33.6194 6.94994 33.4121 6.74763C33.2047 6.54532 32.9218 6.42926 32.625 6.42475H28.0012C28.1671 5.6637 28.1566 4.87736 27.9705 4.12057C27.7844 3.36379 27.4271 2.6548 26.9237 2.04307C26.4203 1.43134 25.7827 0.93161 25.0556 0.57874C24.3285 0.22587 23.5293 0.0283631 22.7137 0H22.716ZM22.6327 2.13872C23.2134 2.15809 23.7789 2.32037 24.2741 2.60977C24.7694 2.89917 25.1775 3.30581 25.4586 3.79007C25.7398 4.27434 25.8845 4.81972 25.8786 5.37308C25.8727 5.92644 25.7164 6.46891 25.425 6.94764C25.2886 7.1748 25.2441 7.44166 25.3001 7.69788C25.3561 7.9541 25.5085 8.18195 25.7287 8.33845L25.7332 8.34274C25.7747 8.37346 25.8183 8.40139 25.8638 8.42632L25.8862 8.43489C26.055 8.52341 26.2448 8.56916 26.4375 8.56776H31.5V9.46353C31.4798 9.57989 31.4798 9.69863 31.5 9.81499V13.7496C31.4798 13.8659 31.4798 13.9846 31.5 14.101V14.9968H13.5V14.0924C13.5193 13.9789 13.5193 13.8631 13.5 13.7496V9.80642C13.5193 9.69286 13.5193 9.57709 13.5 9.46353V8.56776H18.5625C18.7642 8.5709 18.9631 8.52233 19.1383 8.42714C19.3135 8.33195 19.4586 8.19364 19.5585 8.02669C19.6583 7.85974 19.7092 7.6703 19.7057 7.4782C19.7023 7.2861 19.6447 7.09841 19.539 6.93478C19.5162 6.86562 19.486 6.79884 19.449 6.73548C19.1139 6.06647 19.0325 5.30753 19.2188 4.58783C19.405 3.86812 19.8474 3.23212 20.4705 2.78806C21.0905 2.34109 21.8557 2.11172 22.6327 2.13872ZM2.25 10.7108H11.25V12.8538H5.625C5.32663 12.8538 5.04048 12.9667 4.8295 13.1676C4.61853 13.3686 4.5 13.6411 4.5 13.9253V54.6425C4.5 54.9267 4.61853 55.1992 4.8295 55.4001C5.04048 55.6011 5.32663 55.714 5.625 55.714H32.418C32.6247 55.7504 32.8379 55.731 33.0336 55.6579C33.2292 55.5848 33.3995 55.4609 33.525 55.3004L40.0725 49.0664C40.2353 48.9482 40.3611 48.7899 40.4364 48.6087C40.5117 48.4274 40.5337 48.23 40.5 48.0377V13.9253C40.5 13.6411 40.3815 13.3686 40.1705 13.1676C39.9595 12.9667 39.6734 12.8538 39.375 12.8538H33.75V10.7108H42.75V57.857H2.25V10.7108ZM6.75 14.9968H11.25V16.0597C11.2499 16.303 11.3367 16.5391 11.4962 16.7292C11.6557 16.9193 11.8783 17.052 12.1275 17.1055H12.159C12.177 17.1059 12.195 17.1059 12.213 17.1055C12.2619 17.1158 12.3116 17.123 12.3615 17.1269H32.625C32.9234 17.1269 33.2095 17.014 33.4205 16.8131C33.6315 16.6122 33.75 16.3396 33.75 16.0554V14.9968H38.25V47.1462H32.625C32.3266 47.1462 32.0405 47.2591 31.8295 47.4601C31.6185 47.661 31.5 47.9336 31.5 48.2177V53.571H6.75V14.9968ZM16.8975 21.4258C16.6055 21.4332 16.3279 21.5485 16.1235 21.7473L12.3975 25.2725L10.9283 23.886C9.86625 22.8381 8.235 24.4003 9.342 25.4075L11.601 27.5441C11.8118 27.7437 12.0969 27.8557 12.3941 27.8557C12.6913 27.8557 12.9765 27.7437 13.1873 27.5441L17.7053 23.2667C17.8678 23.1167 17.9791 22.9234 18.0246 22.7122C18.0701 22.501 18.0476 22.2817 17.9601 22.0828C17.8726 21.884 17.7242 21.7149 17.5342 21.5977C17.3442 21.4805 17.1215 21.4206 16.8953 21.4258H16.8975ZM21.2782 21.4258C19.7775 21.4987 19.8923 23.6417 21.3908 23.5688H28.1408C29.664 23.5903 29.664 21.4044 28.1408 21.4258H21.3908C21.3533 21.424 21.3157 21.424 21.2782 21.4258ZM21.3053 25.7118C19.8045 25.7847 19.9193 27.9277 21.4177 27.8548H34.83C36.3532 27.8763 36.3532 25.6904 34.83 25.7118H21.42C21.3818 25.71 21.3435 25.71 21.3053 25.7118ZM16.8953 32.1409C16.604 32.1488 16.3273 32.264 16.1235 32.4623L12.3975 35.9876L10.9283 34.601C9.86625 33.5531 8.235 35.1154 9.342 36.1226L11.601 38.2592C11.8118 38.4587 12.0969 38.5707 12.3941 38.5707C12.6913 38.5707 12.9765 38.4587 13.1873 38.2592L17.7053 33.9817C17.8678 33.8317 17.9791 33.6385 18.0246 33.4273C18.0701 33.2161 18.0476 32.9967 17.9601 32.7979C17.8726 32.5991 17.7242 32.43 17.5342 32.3128C17.3442 32.1955 17.1215 32.1356 16.8953 32.1409ZM21.2782 32.1409C19.7775 32.2137 19.8923 34.3567 21.3908 34.2839H28.1408C29.664 34.3053 29.664 32.1194 28.1408 32.1409H21.3908C21.3533 32.1391 21.3157 32.1391 21.2782 32.1409ZM21.3053 36.4269C19.8045 36.4998 19.9193 38.6428 21.4177 38.5699H34.83C36.3532 38.5913 36.3532 36.4055 34.83 36.4269H21.42C21.3818 36.425 21.3435 36.425 21.3053 36.4269ZM16.8953 42.8559C16.604 42.8638 16.3273 42.9791 16.1235 43.1774L12.3975 46.7026L10.9283 45.3161C9.86625 44.2682 8.235 45.8304 9.342 46.8376L11.601 48.9742C11.8118 49.1738 12.0969 49.2858 12.3941 49.2858C12.6913 49.2858 12.9765 49.1738 13.1873 48.9742L17.7053 44.6968C17.8678 44.5468 17.9791 44.3535 18.0246 44.1423C18.0701 43.9311 18.0476 43.7118 17.9601 43.513C17.8726 43.3141 17.7242 43.145 17.5342 43.0278C17.3442 42.9106 17.1215 42.8507 16.8953 42.8559ZM21.2782 42.8559C19.7775 42.9288 19.8923 45.0718 21.3908 44.9989H28.1408C29.664 45.0204 29.664 42.8345 28.1408 42.8559H21.3908C21.3533 42.8541 21.3157 42.8541 21.2782 42.8559ZM21.3053 47.1419C19.8045 47.2148 19.9193 49.3578 21.4177 49.285H28.08C29.6032 49.3064 29.6032 47.1205 28.08 47.1419H21.42C21.3818 47.1401 21.3435 47.1401 21.3053 47.1419ZM33.75 49.2892H36.6592L33.75 52.0559V49.2892Z" fill="#FECA1F"/>
</svg>
